<mxfile host="app.diagrams.net" modified="2023-10-18T22:52:38.096Z" agent="Mozilla/5.0 (X11; Linux x86_64) AppleWebKit/537.36 (KHTML, like Gecko) Chrome/117.0.0.0 Safari/537.36" version="22.0.4" etag="Ls1Xatgm-jor3do88ktm" type="github">
  <diagram name="Page-1" id="91oObx1KNSnrd9CSOSOW">
    <mxGraphModel>
      <root>
        <mxCell id="0" />
        <mxCell id="1" parent="0" />
      </root>
    </mxGraphModel>
  </diagram>
</mxfile>
